<svg xmlns="http://www.w3.org/2000/svg" width="500" height="143" viewBox="0 0 500 143" aria-labelledby="Hearsay logo" role="presentation" class="icon-logo" data-v-2c74cb9c="" data-v-583f8ecb=""><title id="Hearsay logo" lang="en" data-v-2c74cb9c="">Hearsay logo icon</title> <g fill="currentColor" data-v-2c74cb9c=""><path d="M490.68,40.33c-6.16-6.95-15.89-10.47-28.9-10.47a84.22,84.22,0,0,0-13.77,1,69.33,69.33,0,0,0-10.78,2.67A48.63,48.63,0,0,0,429,37.21c-2.09,1.21-4,2.43-5.69,3.64L433.46,56a50.35,50.35,0,0,1,9.5-4.69,42.94,42.94,0,0,1,15.09-2.29,30.86,30.86,0,0,1,6.5.67,16.2,16.2,0,0,1,5.58,2.35,13.46,13.46,0,0,1,3.95,4.15,11.66,11.66,0,0,1,1.5,6.08v2.82l-.93-.23a37.45,37.45,0,0,0-6.09-.54c-3.18-.12-6.34-.18-9.39-.18a58.88,58.88,0,0,0-15.74,2,38.17,38.17,0,0,0-12.53,5.94,28,28,0,0,0-8.26,9.71,28.66,28.66,0,0,0-3,13.27,26.1,26.1,0,0,0,2.79,12.69c4.65,7,10.84,9.51,17.31,11.63,3.79,1.24,9.3,2,16.85,2.22,13.79-.1,28-4.42,43.4-13.19V68.63C500,56.83,496.86,47.3,490.68,40.33Zm-15.43,60.35c-3.92,2.31-9.39,3.13-12.88,3.13-17,0-18.31-9.69-18.31-12.66,0-3.23,1.77-6.22,5-8.41h0c3.22-2.19,8.7-3.31,16.27-3.31a57.18,57.18,0,0,1,6.05.29c1.73.18,2.95.35,3.61.48l.6.11,0,20.14ZM42.13,29.86a84.18,84.18,0,0,0-13.76,1,69.18,69.18,0,0,0-10.79,2.67,48.63,48.63,0,0,0-8.26,3.67c-2.08,1.21-4,2.43-5.69,3.64L13.81,56a50.65,50.65,0,0,1,9.5-4.69,43,43,0,0,1,15.1-2.29,30.93,30.93,0,0,1,6.5.67,16.15,16.15,0,0,1,5.57,2.35,13.23,13.23,0,0,1,4,4.15,11.67,11.67,0,0,1,1.51,6.08v2.82L55,64.89a37.49,37.49,0,0,0-6.1-.54c-3.18-.12-6.34-.18-9.39-.18a58.88,58.88,0,0,0-15.74,2,38.12,38.12,0,0,0-12.52,5.94A27.94,27.94,0,0,0,3,81.84,28.78,28.78,0,0,0,0,95.11a33.18,33.18,0,0,0,.38,5c20.88,16.54,52.16,23.33,80,17.37V68.63c0-11.8-3.13-21.33-9.32-28.3S55.15,29.86,42.13,29.86ZM55.6,100.68c-3.92,2.31-9.38,3.13-12.87,3.13-17,0-18.31-9.69-18.31-12.66,0-3.23,1.77-6.22,5-8.41s8.69-3.3,16.27-3.3a57,57,0,0,1,6,.29c1.74.18,3,.35,3.61.48l.61.11,0,20.14ZM404.8,43.84a35.28,35.28,0,0,0-12-9.4A36.83,36.83,0,0,0,376.57,31,38.07,38.07,0,0,0,364,33.17a24.59,24.59,0,0,0-9.86,6l-1.3,1.36V0H327.53V115.64a139.48,139.48,0,0,0,15.91,4.1,104.75,104.75,0,0,0,21,2,61.47,61.47,0,0,0,21.37-3.49,44.86,44.86,0,0,0,15.77-9.72,41.57,41.57,0,0,0,9.8-15,53.66,53.66,0,0,0,3.4-19.31,53,53,0,0,0-2.58-16.64A43,43,0,0,0,404.8,43.84ZM383.2,93.73c-4,4.76-9.79,7.17-17.07,7.17a47.31,47.31,0,0,1-7.68-.48A24.18,24.18,0,0,1,353.34,99l-.46-.2V71.25c0-5.64,1.51-10.22,4.48-13.64s7.64-5.2,13.8-5.2a15.93,15.93,0,0,1,8.31,2.06A17.36,17.36,0,0,1,385,59.73,24,24,0,0,1,388.2,67a32.37,32.37,0,0,1,1.05,8.21C389.25,82.77,387.22,89,383.2,93.73Zm-95.57,17.44c8.37.48,16.89,1.37,25.35,2.64V36.17H287.63Zm-.93-88.62h27.21V0H286.7Zm-39,56.71a24.68,24.68,0,0,1-1.15,7.5,17.69,17.69,0,0,1-9.14,10.8,16.93,16.93,0,0,1-7.61,1.66c-4.94,0-8.74-1.53-11.3-4.55s-3.81-7.1-3.81-12.24V36.17H189.37V86.35c0,11.43,2.88,20.16,8.55,26a27.45,27.45,0,0,0,10.23,6.57,251.93,251.93,0,0,1,36.19-6.64l2.95-.29c8.46-.82,17.06-1.24,25.61-1.22V36.17H247.73ZM101.32,44.19a42.47,42.47,0,0,0-9.8,14.57,47.76,47.76,0,0,0-3.39,18.08A56.22,56.22,0,0,0,91,95.33a41.19,41.19,0,0,0,8,13.92,34.5,34.5,0,0,0,12.41,8.85,41.83,41.83,0,0,0,16.49,3.11,36.82,36.82,0,0,0,13.24-2.09,22.17,22.17,0,0,0,8.21-5.13l1.3-1.38v29.63a222.13,222.13,0,0,1,25.35-12.51V36.79C159.51,33.59,147.13,32,138.09,32,116.6,32,107.15,38.53,101.32,44.19Zm49.27,11.08v26c0,6.4-1.52,11.16-4.51,14.15S138.64,100,132.87,100a18.77,18.77,0,0,1-8.64-1.86,16.68,16.68,0,0,1-6-5.07,22.67,22.67,0,0,1-3.47-7.33A32.32,32.32,0,0,1,113.66,77c0-7.1,1.81-12.14,6.07-16.87,4-4.43,9.77-6.77,16.71-6.77,4.31,0,10.2.52,13.64,1.7Z" data-v-2c74cb9c=""></path></g></svg>